HIERARCHY
ROOT Hips
{
	OFFSET 0.000000 0.000000 0.000000
	CHANNELS 6 Xposition Yposition Zposition Zrotation Yrotation Xrotation 
	JOINT LHipJoint
	{
		OFFSET 0.000000 0.000000 0.000000
		CHANNELS 3 Zrotation Yrotation Xrotation
		JOINT LeftUpLeg
		{
			OFFSET 1.363060 -1.794630 0.839290
			CHANNELS 3 Zrotation Yrotation Xrotation
			JOINT LeftLeg
			{
				OFFSET 2.448110 -6.726130 0.000000
				CHANNELS 3 Zrotation Yrotation Xrotation
				JOINT LeftFoot
				{
					OFFSET 2.562200 -7.039590 0.000000
					CHANNELS 3 Zrotation Yrotation Xrotation
					JOINT LeftToeBase
					{
						OFFSET 0.157640 -0.433110 2.322550
						CHANNELS 3 Zrotation Yrotation Xrotation
						End Site
						{
							OFFSET 0.000000 0.000000 0.000000
						}
					}
				}
			}
		}
	}
	JOINT RHipJoint
	{
		OFFSET 0.000000 0.000000 0.000000
		CHANNELS 3 Zrotation Yrotation Xrotation
		JOINT RightUpLeg
		{
			OFFSET -1.305520 -1.794630 0.839290
			CHANNELS 3 Zrotation Yrotation Xrotation
			JOINT RightLeg
			{
				OFFSET -2.542530 -6.985550 0.000000
				CHANNELS 3 Zrotation Yrotation Xrotation
				JOINT RightFoot
				{
					OFFSET -2.568260 -7.056230 0.000000
					CHANNELS 3 Zrotation Yrotation Xrotation
					JOINT RightToeBase
					{
						OFFSET -0.164730 -0.452590 2.363150
						CHANNELS 3 Zrotation Yrotation Xrotation
						End Site
						{
							OFFSET 0.000000 0.000000 0.000000
						}
					}
				}
			}
		}
	}
	JOINT LowerBack
	{
		OFFSET 0.000000 0.000000 0.000000
		CHANNELS 3 Zrotation Yrotation Xrotation
		JOINT Spine
		{
			OFFSET 0.028270 2.035590 -0.193380
			CHANNELS 3 Zrotation Yrotation Xrotation
			JOINT Spine1
			{
				OFFSET 0.056720 2.048850 -0.042750
				CHANNELS 3 Zrotation Yrotation Xrotation
				JOINT Neck
				{
					OFFSET 0.000000 0.000000 0.000000
					CHANNELS 3 Zrotation Yrotation Xrotation
					JOINT Neck1
					{
						OFFSET -0.054170 1.746240 0.172020
						CHANNELS 3 Zrotation Yrotation Xrotation
						JOINT Head
						{
							OFFSET 0.104070 1.761360 -0.123970
							CHANNELS 3 Zrotation Yrotation Xrotation
							End Site
							{
								OFFSET 0.000000 0.000000 0.000000
							}
						}
					}
				}
				JOINT LeftShoulder
				{
					OFFSET 0.000000 0.000000 0.000000
					CHANNELS 3 Zrotation Yrotation Xrotation
					JOINT LeftArm
					{
						OFFSET 3.362410 1.200890 -0.311210
						CHANNELS 3 Zrotation Yrotation Xrotation
						JOINT LeftForeArm
						{
							OFFSET 4.983000 -0.000000 -0.000000
							CHANNELS 3 Zrotation Yrotation Xrotation
							JOINT LeftHand
							{
								OFFSET 3.483560 -0.000000 -0.000000
								CHANNELS 3 Zrotation Yrotation Xrotation
								JOINT LeftFingerBase
								{
									OFFSET 0.000000 0.000000 0.000000
									CHANNELS 3 Zrotation Yrotation Xrotation
									JOINT LeftHandIndex1
									{
										OFFSET 0.715260 -0.000000 -0.000000
										CHANNELS 3 Zrotation Yrotation Xrotation
										End Site
										{
											OFFSET 0.000000 0.000000 0.000000
										}
									}
								}
								JOINT LThumb
								{
									OFFSET 0.000000 0.000000 0.000000
									CHANNELS 3 Zrotation Yrotation Xrotation
									End Site
									{
										OFFSET 0.000000 0.000000 0.000000
									}
								}
							}
						}
					}
				}
				JOINT RightShoulder
				{
					OFFSET 0.000000 0.000000 0.000000
					CHANNELS 3 Zrotation Yrotation Xrotation
					JOINT RightArm
					{
						OFFSET -3.136600 1.374050 -0.404650
						CHANNELS 3 Zrotation Yrotation Xrotation
						JOINT RightForeArm
						{
							OFFSET -5.241900 -0.000000 -0.000000
							CHANNELS 3 Zrotation Yrotation Xrotation
							JOINT RightHand
							{
								OFFSET -3.444170 -0.000000 -0.000000
								CHANNELS 3 Zrotation Yrotation Xrotation
								JOINT RightFingerBase
								{
									OFFSET 0.000000 0.000000 0.000000
									CHANNELS 3 Zrotation Yrotation Xrotation
									JOINT RightHandIndex1
									{
										OFFSET -0.622530 -0.000000 -0.000000
										CHANNELS 3 Zrotation Yrotation Xrotation
										End Site
										{
											OFFSET 0.000000 0.000000 0.000000
										}
									}
								}
								JOINT RThumb
								{
									OFFSET 0.000000 0.000000 0.000000
									CHANNELS 3 Zrotation Yrotation Xrotation
									End Site
									{
										OFFSET 0.000000 0.000000 0.000000
									}
								}
							}
						}
					}
				}
			}
		}
	}
}
MOTION
Frames: 10
Frame Time: 0.008333
0.193191 17.651378 -0.602204 1.637574 -1.944085 8.229756 5.811097 5.089450 0.981421 -25.955030 -6.653121 -11.996164 0.286390 4.897136 17.169857 -1.105724 8.998830 -10.512867 0.428300 -4.199900 -11.639600 -7.918704 -5.146009 0.153519 25.025866 7.633936 -13.719723 -2.133896 -6.459442 22.106352 1.138723 -14.022640 -15.188355 -0.275300 3.374900 -9.324400 0.401617 1.547653 9.115862 -0.705483 2.245380 -1.180178 0.954913 0.901701 -0.646432 -7.475967 -18.179385 -4.370477 8.637329 -24.676332 6.666734 3.241800 -12.172100 4.154200 3.271669 -3.668589 6.712113 42.352714 -31.000295 -76.905665 141.558309 -47.233757 -102.973785 -0.518216 -0.022840 -43.527384 2.733196 25.668245 1.337800 -7.125000 0.000000 0.000000 -27.302600 53.172200 -5.833100 -0.162638 2.829691 0.599581 -74.530349 54.495671 -107.983005 -12.605351 23.824905 -2.014770 0.704406 -0.162501 27.010018 0.362063 10.333262 -0.060000 7.125000 0.000000 0.000000 18.741700 -20.038300 11.827400 
0.196396 17.653904 -0.599970 1.546811 -1.839253 8.256919 5.807535 5.087488 0.982926 -25.855877 -6.702580 -11.968668 0.274766 4.862388 17.068932 -1.113477 8.986940 -10.362767 0.406900 -4.094800 -11.343600 -7.920954 -5.147750 0.150818 25.118060 7.666006 -13.611459 -2.111715 -6.406571 21.960575 1.151349 -14.107389 -15.243627 -0.245200 3.186700 -8.798800 0.570684 1.544589 9.192430 -0.683052 2.254099 -1.209747 0.923260 0.910728 -0.739509 -7.554106 -18.307493 -4.221516 8.889639 -24.841539 6.277845 3.360500 -12.258900 4.042200 3.276844 -3.693051 6.726746 42.371603 -31.089103 -77.152829 141.768703 -47.116883 -103.102603 -0.468993 -0.013222 -43.038719 3.060005 25.345609 1.445000 -7.125000 0.000000 0.000000 -26.848300 52.963000 -5.581200 -0.166860 2.857463 0.637835 -74.294138 54.054815 -107.407164 -13.140273 24.629981 -2.185921 0.607169 -0.053394 26.835038 -2.827749 11.071775 -0.639100 7.125000 0.000000 0.000000 16.587900 -19.334400 10.611300 
0.200670 17.656235 -0.597056 1.509180 -1.759973 8.320568 5.806463 5.084328 0.984068 -25.823928 -6.767911 -11.978871 0.265900 4.839527 16.998445 -1.119644 8.986955 -10.265036 0.390100 -4.010500 -11.106300 -7.922348 -5.148260 0.153321 25.146212 7.710836 -13.584847 -2.096189 -6.373219 21.861050 1.154778 -14.158450 -15.328278 -0.218300 3.007900 -8.300700 0.685009 1.547598 9.204573 -0.669351 2.266011 -1.237380 0.903560 0.919643 -0.797074 -7.616179 -18.420138 -4.065558 9.102680 -24.986334 5.950235 3.464300 -12.336100 3.942500 3.280445 -3.717174 6.743962 42.338919 -31.182353 -77.372269 142.069315 -46.929758 -103.313666 -0.451607 0.021740 -42.666572 3.345192 25.451188 1.556900 -7.125000 0.000000 0.000000 -26.671500 53.090500 -5.626500 -0.171664 2.883810 0.673465 -74.131804 53.670585 -106.893636 -13.651722 25.391491 -2.355666 0.505066 0.045169 26.499908 -5.995876 11.616844 -1.269200 7.125000 0.000000 0.000000 14.464900 -18.757600 9.346900 
0.205818 17.658372 -0.595988 1.566003 -1.700011 8.380671 5.809084 5.082491 0.988748 -25.904385 -6.835993 -12.019372 0.261930 4.834592 16.979946 -1.119799 9.000352 -10.298986 0.396900 -4.044800 -11.202700 -7.920571 -5.146508 0.156441 25.064002 7.742219 -13.597856 -2.085903 -6.350399 21.786490 1.165194 -14.232415 -15.353463 -0.207900 2.935400 -8.099100 0.695547 1.543239 9.228535 -0.670857 2.260745 -1.283515 0.876843 0.916731 -0.895166 -7.402395 -18.510798 -3.878544 9.075903 -25.068280 5.642009 3.462900 -12.385100 3.753600 3.293508 -3.725497 6.756980 42.285312 -31.272909 -77.513063 142.408026 -46.707504 -103.564901 -0.466968 0.082817 -42.416470 3.595336 26.003910 1.681900 -7.125000 0.000000 0.000000 -26.778700 53.573200 -5.980200 -0.174491 2.920394 0.707211 -73.890332 53.396064 -106.274783 -14.169410 26.135347 -2.524945 0.395534 0.155416 26.328670 -9.541921 12.324301 -2.061800 7.125000 0.000000 0.000000 12.084100 -17.966000 7.946600 
0.210771 17.660606 -0.597639 1.602091 -1.647097 8.388275 5.810387 5.080914 0.992653 -25.953435 -6.916950 -12.028016 0.262582 4.840953 16.995755 -1.120778 9.023994 -10.349493 0.405200 -4.086400 -11.319800 -7.919657 -5.146405 0.150898 25.013004 7.702056 -13.594204 -2.080757 -6.335598 21.742354 1.177983 -14.288412 -15.306076 -0.215800 2.990600 -8.252700 0.707620 1.544221 9.315047 -0.652649 2.265390 -1.289949 0.896646 0.918113 -0.936357 -7.207091 -18.631229 -3.834389 9.017126 -25.192672 5.406732 3.429900 -12.449400 3.622700 3.305186 -3.737646 6.761098 42.180136 -31.316852 -77.585439 142.679429 -46.534161 -103.749866 -0.443583 0.129781 -42.151446 4.082901 26.167794 1.883100 -7.125000 0.000000 0.000000 -26.455600 53.782700 -6.040000 -0.176413 2.958127 0.750352 -73.604103 53.065385 -105.482663 -14.787903 27.013774 -2.733641 0.304698 0.238726 26.039750 -12.552833 12.965303 -2.819400 7.125000 0.000000 0.000000 10.067500 -17.195300 6.746900 
0.215531 17.659537 -0.601136 1.608392 -1.567532 8.402266 5.811512 5.075873 0.992908 -25.964236 -7.025679 -12.051343 0.266727 4.857863 17.036495 -1.113279 8.992215 -10.362966 0.381700 -3.967800 -10.986200 -7.921474 -5.146363 0.145481 24.994748 7.675394 -13.615167 -2.081176 -6.338096 21.746093 1.190755 -14.357139 -15.289206 -0.221000 3.026200 -8.351700 0.757461 1.544248 9.401969 -0.618493 2.272088 -1.257896 0.961187 0.922326 -0.909023 -7.319387 -18.790686 -3.788235 9.152238 -25.392712 5.120159 3.494600 -12.551400 3.558700 3.311581 -3.764792 6.764679 42.061296 -31.302090 -77.734145 142.956104 -46.352131 -103.944969 -0.424524 0.164952 -42.117832 4.537445 26.255360 2.070900 -7.125000 0.000000 0.000000 -26.107200 53.925100 -6.045400 -0.181821 2.982718 0.803670 -73.401289 52.692234 -104.793495 -15.443130 27.946270 -2.963533 0.247945 0.297824 25.565102 -14.706735 13.796850 -3.505000 7.125000 0.000000 0.000000 8.627100 -16.237400 5.939100 
0.219416 17.657595 -0.605992 1.550463 -1.501810 8.394153 5.812098 5.071628 0.990744 -25.908427 -7.048223 -12.119468 0.280197 4.897246 17.137100 -1.098610 8.898601 -10.297671 0.378700 -3.952200 -10.942300 -7.926185 -5.144222 0.143365 25.047323 7.709580 -13.603712 -2.084779 -6.349200 21.780632 1.191951 -14.382051 -15.338495 -0.212300 2.966100 -8.184300 0.863699 1.534895 9.524237 -0.582458 2.272462 -1.228974 0.985939 0.923603 -0.921185 -7.434279 -18.962416 -3.509431 9.326167 -25.601926 4.710903 3.604900 -12.667300 3.409600 3.318472 -3.783727 6.774060 41.923411 -31.328094 -77.790146 143.232450 -46.160894 -104.148336 -0.422783 0.205018 -41.968254 4.805666 26.517958 2.195000 -7.125000 0.000000 0.000000 -26.029300 54.179200 -6.192200 -0.187113 3.003159 0.861395 -73.284805 52.462353 -104.441077 -16.112084 28.884261 -3.207893 0.181549 0.360243 25.090035 -17.160815 14.669600 -4.349000 7.125000 0.000000 0.000000 7.012500 -15.174600 4.970300 
0.222524 17.655166 -0.613860 1.592913 -1.445404 8.406454 5.818833 5.066310 0.988866 -25.965341 -7.095522 -12.245693 0.298089 4.953175 17.279687 -1.094478 8.863618 -10.231276 0.396400 -4.042300 -11.195800 -7.927431 -5.140039 0.147043 24.989310 7.758290 -13.685922 -2.095628 -6.382242 21.864919 1.197603 -14.443463 -15.388211 -0.211000 2.957200 -8.159600 0.870552 1.529125 9.630889 -0.578134 2.268131 -1.197878 0.980310 0.921600 -0.911783 -7.406830 -19.080955 -3.336293 9.450821 -25.743823 4.426208 3.669800 -12.743900 3.293600 3.324326 -3.795054 6.782738 41.867314 -31.388463 -77.769976 143.442131 -46.020682 -104.293252 -0.412624 0.236610 -41.605429 4.983422 26.671176 2.273300 -7.125000 0.000000 0.000000 -25.974100 54.330700 -6.276700 -0.201520 3.025733 0.916898 -73.039402 52.279489 -103.981090 -16.867040 29.907899 -3.494829 0.104615 0.417025 24.452050 -19.844512 15.502020 -5.334500 7.125000 0.000000 0.000000 5.274500 -14.073200 3.850300 
0.227381 17.652738 -0.621824 1.597274 -1.380842 8.429268 5.824684 5.058350 0.987859 -25.979255 -7.205153 -12.385716 0.318602 5.021434 17.451719 -1.086578 8.841457 -10.260771 0.403400 -4.077400 -11.294600 -7.930372 -5.138291 0.150990 24.965782 7.758865 -13.826863 -2.114576 -6.436184 22.008486 1.196559 -14.465495 -15.432157 -0.211000 2.957400 -8.160200 0.931867 1.527558 9.703073 -0.555375 2.274021 -1.158100 0.992700 0.925027 -0.857404 -7.402331 -19.159646 -3.282359 9.514261 -25.843188 4.329031 3.697200 -12.794900 3.264200 3.329359 -3.808781 6.788086 41.789292 -31.432121 -77.794786 143.649451 -45.869838 -104.450713 -0.426103 0.275616 -41.283813 5.007950 27.065163 2.307100 -7.125000 0.000000 0.000000 -26.199300 54.651800 -6.548800 -0.217035 3.044292 0.970638 -72.822938 52.127827 -103.519668 -17.642248 30.940243 -3.803399 0.030987 0.463557 23.792335 -22.443773 16.290329 -6.381400 7.125000 0.000000 0.000000 3.618500 -12.962700 2.720200 
0.233888 17.649824 -0.630469 1.589531 -1.345363 8.463744 5.830213 5.049476 0.986394 -25.987253 -7.327760 -12.543000 0.340210 5.096793 17.640623 -1.081656 8.867879 -10.391910 0.427400 -4.195500 -11.627400 -7.933777 -5.137196 0.159583 24.938903 7.746018 -14.043794 -2.144597 -6.518731 22.230534 1.174647 -14.378704 -15.493937 -0.199600 2.876800 -7.935900 1.003018 1.532767 9.772909 -0.527667 2.290010 -1.118288 1.002868 0.933603 -0.806049 -7.396742 -19.238118 -3.183370 9.550340 -25.939418 4.240352 3.720000 -12.846700 3.223500 3.334273 -3.817242 6.792877 41.713523 -31.487865 -77.772843 143.803974 -45.751657 -104.571843 -0.442461 0.309979 -40.994952 4.976222 27.453271 2.317500 -7.125000 0.000000 0.000000 -26.474900 54.958200 -6.829000 -0.231314 3.058674 1.025222 -72.685994 52.055841 -103.287794 -18.423811 31.961689 -4.126054 -0.030192 0.503660 23.263390 -24.833568 17.196592 -7.511000 7.125000 0.000000 0.000000 2.135500 -11.694500 1.659500 
